<svg xmlns="http://www.w3.org/2000/svg" height="24px" viewBox="0 -960 960 960" width="24px" fill="#1f1f1f"><path d="M204-207.5q-15.5 0-26.5-11t-11-26.5q0-15.5 11-26.5t26.5-11h37.5v-271q0-83 50.25-147.5T422-786v-26q0-24 17-40.75t41-16.75q24 0 41 16.75T538-812v26q80 20.5 130.25 85t50.25 147.5v271H756q15.5 0 26.5 11t11 26.5q0 15.5-11 26.5t-26.5 11H204ZM480-500Zm0 408q-32.5 0-55.25-22.75T402-170h156q0 32.5-22.75 55.25T480-92ZM316.5-282.5h327v-271q0-67.5-48-115.5T480-717q-67.5 0-115.5 48t-48 115.5v271Z"/></svg>